G04 #@! TF.GenerationSoftware,KiCad,Pcbnew,5.1.5+dfsg1-2build2*
G04 #@! TF.CreationDate,2020-12-07T20:52:04+03:00*
G04 #@! TF.ProjectId,PowerNeg,506f7765-724e-4656-972e-6b696361645f,rev?*
G04 #@! TF.SameCoordinates,Original*
G04 #@! TF.FileFunction,Soldermask,Top*
G04 #@! TF.FilePolarity,Negative*
%FSLAX46Y46*%
G04 Gerber Fmt 4.6, Leading zero omitted, Abs format (unit mm)*
G04 Created by KiCad (PCBNEW 5.1.5+dfsg1-2build2) date 2020-12-07 20:52:04*
%MOMM*%
%LPD*%
G04 APERTURE LIST*
%ADD10C,0.100000*%
G04 APERTURE END LIST*
D10*
G36*
X192191934Y-102902671D02*
G01*
X192221877Y-102911754D01*
X192249465Y-102926500D01*
X192273651Y-102946349D01*
X192293500Y-102970535D01*
X192308246Y-102998123D01*
X192317329Y-103028066D01*
X192321000Y-103065340D01*
X192321000Y-105334660D01*
X192317329Y-105371934D01*
X192308246Y-105401877D01*
X192293500Y-105429465D01*
X192273651Y-105453651D01*
X192249465Y-105473500D01*
X192221877Y-105488246D01*
X192191934Y-105497329D01*
X192154660Y-105501000D01*
X187985340Y-105501000D01*
X187948066Y-105497329D01*
X187918123Y-105488246D01*
X187890535Y-105473500D01*
X187866349Y-105453651D01*
X187846500Y-105429465D01*
X187831754Y-105401877D01*
X187822671Y-105371934D01*
X187819000Y-105334660D01*
X187819000Y-103065340D01*
X187822671Y-103028066D01*
X187831754Y-102998123D01*
X187846500Y-102970535D01*
X187866349Y-102946349D01*
X187890535Y-102926500D01*
X187918123Y-102911754D01*
X187948066Y-102902671D01*
X187985340Y-102899000D01*
X192154660Y-102899000D01*
X192191934Y-102902671D01*
G37*
G36*
X183791934Y-102902671D02*
G01*
X183821877Y-102911754D01*
X183849465Y-102926500D01*
X183873651Y-102946349D01*
X183893500Y-102970535D01*
X183908246Y-102998123D01*
X183917329Y-103028066D01*
X183921000Y-103065340D01*
X183921000Y-105334660D01*
X183917329Y-105371934D01*
X183908246Y-105401877D01*
X183893500Y-105429465D01*
X183873651Y-105453651D01*
X183849465Y-105473500D01*
X183821877Y-105488246D01*
X183791934Y-105497329D01*
X183754660Y-105501000D01*
X179585340Y-105501000D01*
X179548066Y-105497329D01*
X179518123Y-105488246D01*
X179490535Y-105473500D01*
X179466349Y-105453651D01*
X179446500Y-105429465D01*
X179431754Y-105401877D01*
X179422671Y-105371934D01*
X179419000Y-105334660D01*
X179419000Y-103065340D01*
X179422671Y-103028066D01*
X179431754Y-102998123D01*
X179446500Y-102970535D01*
X179466349Y-102946349D01*
X179490535Y-102926500D01*
X179518123Y-102911754D01*
X179548066Y-102902671D01*
X179585340Y-102899000D01*
X183754660Y-102899000D01*
X183791934Y-102902671D01*
G37*
G36*
X199461934Y-102842671D02*
G01*
X199491877Y-102851754D01*
X199519465Y-102866500D01*
X199543651Y-102886349D01*
X199563500Y-102910535D01*
X199578246Y-102938123D01*
X199587329Y-102968066D01*
X199591000Y-103005340D01*
X199591000Y-105274660D01*
X199587329Y-105311934D01*
X199578246Y-105341877D01*
X199563500Y-105369465D01*
X199543651Y-105393651D01*
X199519465Y-105413500D01*
X199491877Y-105428246D01*
X199461934Y-105437329D01*
X199424660Y-105441000D01*
X195255340Y-105441000D01*
X195218066Y-105437329D01*
X195188123Y-105428246D01*
X195160535Y-105413500D01*
X195136349Y-105393651D01*
X195116500Y-105369465D01*
X195101754Y-105341877D01*
X195092671Y-105311934D01*
X195089000Y-105274660D01*
X195089000Y-103005340D01*
X195092671Y-102968066D01*
X195101754Y-102938123D01*
X195116500Y-102910535D01*
X195136349Y-102886349D01*
X195160535Y-102866500D01*
X195188123Y-102851754D01*
X195218066Y-102842671D01*
X195255340Y-102839000D01*
X199424660Y-102839000D01*
X199461934Y-102842671D01*
G37*
G36*
X207861934Y-102842671D02*
G01*
X207891877Y-102851754D01*
X207919465Y-102866500D01*
X207943651Y-102886349D01*
X207963500Y-102910535D01*
X207978246Y-102938123D01*
X207987329Y-102968066D01*
X207991000Y-103005340D01*
X207991000Y-105274660D01*
X207987329Y-105311934D01*
X207978246Y-105341877D01*
X207963500Y-105369465D01*
X207943651Y-105393651D01*
X207919465Y-105413500D01*
X207891877Y-105428246D01*
X207861934Y-105437329D01*
X207824660Y-105441000D01*
X203655340Y-105441000D01*
X203618066Y-105437329D01*
X203588123Y-105428246D01*
X203560535Y-105413500D01*
X203536349Y-105393651D01*
X203516500Y-105369465D01*
X203501754Y-105341877D01*
X203492671Y-105311934D01*
X203489000Y-105274660D01*
X203489000Y-103005340D01*
X203492671Y-102968066D01*
X203501754Y-102938123D01*
X203516500Y-102910535D01*
X203536349Y-102886349D01*
X203560535Y-102866500D01*
X203588123Y-102851754D01*
X203618066Y-102842671D01*
X203655340Y-102839000D01*
X207824660Y-102839000D01*
X207861934Y-102842671D01*
G37*
G36*
X176001000Y-105001000D02*
G01*
X174199000Y-105001000D01*
X174199000Y-103199000D01*
X176001000Y-103199000D01*
X176001000Y-105001000D01*
G37*
G36*
X175213512Y-100663927D02*
G01*
X175362812Y-100693624D01*
X175526784Y-100761544D01*
X175674354Y-100860147D01*
X175799853Y-100985646D01*
X175898456Y-101133216D01*
X175966376Y-101297188D01*
X176001000Y-101471259D01*
X176001000Y-101648741D01*
X175966376Y-101822812D01*
X175898456Y-101986784D01*
X175799853Y-102134354D01*
X175674354Y-102259853D01*
X175526784Y-102358456D01*
X175362812Y-102426376D01*
X175213512Y-102456073D01*
X175188742Y-102461000D01*
X175011258Y-102461000D01*
X174986488Y-102456073D01*
X174837188Y-102426376D01*
X174673216Y-102358456D01*
X174525646Y-102259853D01*
X174400147Y-102134354D01*
X174301544Y-101986784D01*
X174233624Y-101822812D01*
X174199000Y-101648741D01*
X174199000Y-101471259D01*
X174233624Y-101297188D01*
X174301544Y-101133216D01*
X174400147Y-100985646D01*
X174525646Y-100860147D01*
X174673216Y-100761544D01*
X174837188Y-100693624D01*
X174986488Y-100663927D01*
X175011258Y-100659000D01*
X175188742Y-100659000D01*
X175213512Y-100663927D01*
G37*
G36*
X206585997Y-92383051D02*
G01*
X206619652Y-92393261D01*
X206650665Y-92409838D01*
X206677851Y-92432149D01*
X206700162Y-92459335D01*
X206716739Y-92490348D01*
X206726949Y-92524003D01*
X206731000Y-92565138D01*
X206731000Y-95794862D01*
X206726949Y-95835997D01*
X206716739Y-95869652D01*
X206700162Y-95900665D01*
X206677851Y-95927851D01*
X206650665Y-95950162D01*
X206619652Y-95966739D01*
X206585997Y-95976949D01*
X206544862Y-95981000D01*
X205215138Y-95981000D01*
X205174003Y-95976949D01*
X205140348Y-95966739D01*
X205109335Y-95950162D01*
X205082149Y-95927851D01*
X205059838Y-95900665D01*
X205043261Y-95869652D01*
X205033051Y-95835997D01*
X205029000Y-95794862D01*
X205029000Y-92565138D01*
X205033051Y-92524003D01*
X205043261Y-92490348D01*
X205059838Y-92459335D01*
X205082149Y-92432149D01*
X205109335Y-92409838D01*
X205140348Y-92393261D01*
X205174003Y-92383051D01*
X205215138Y-92379000D01*
X206544862Y-92379000D01*
X206585997Y-92383051D01*
G37*
G36*
X196901000Y-94791000D02*
G01*
X194299000Y-94791000D01*
X194299000Y-92389000D01*
X196901000Y-92389000D01*
X196901000Y-94791000D01*
G37*
G36*
X201201000Y-94791000D02*
G01*
X198599000Y-94791000D01*
X198599000Y-92389000D01*
X201201000Y-92389000D01*
X201201000Y-94791000D01*
G37*
G36*
X212093512Y-91153927D02*
G01*
X212242812Y-91183624D01*
X212406784Y-91251544D01*
X212554354Y-91350147D01*
X212679853Y-91475646D01*
X212778456Y-91623216D01*
X212846376Y-91787188D01*
X212881000Y-91961259D01*
X212881000Y-92138741D01*
X212846376Y-92312812D01*
X212778456Y-92476784D01*
X212679853Y-92624354D01*
X212554354Y-92749853D01*
X212406784Y-92848456D01*
X212242812Y-92916376D01*
X212093512Y-92946073D01*
X212068742Y-92951000D01*
X211891258Y-92951000D01*
X211866488Y-92946073D01*
X211717188Y-92916376D01*
X211553216Y-92848456D01*
X211405646Y-92749853D01*
X211280147Y-92624354D01*
X211181544Y-92476784D01*
X211113624Y-92312812D01*
X211079000Y-92138741D01*
X211079000Y-91961259D01*
X211113624Y-91787188D01*
X211181544Y-91623216D01*
X211280147Y-91475646D01*
X211405646Y-91350147D01*
X211553216Y-91251544D01*
X211717188Y-91183624D01*
X211866488Y-91153927D01*
X211891258Y-91149000D01*
X212068742Y-91149000D01*
X212093512Y-91153927D01*
G37*
G36*
X177134903Y-89937075D02*
G01*
X177362571Y-90031378D01*
X177567466Y-90168285D01*
X177741715Y-90342534D01*
X177857505Y-90515826D01*
X177878623Y-90547431D01*
X177972925Y-90775097D01*
X178021000Y-91016786D01*
X178021000Y-91263214D01*
X177972925Y-91504903D01*
X177923918Y-91623218D01*
X177878622Y-91732571D01*
X177741715Y-91937466D01*
X177567466Y-92111715D01*
X177362571Y-92248622D01*
X177362570Y-92248623D01*
X177362569Y-92248623D01*
X177134903Y-92342925D01*
X176893214Y-92391000D01*
X176646786Y-92391000D01*
X176405097Y-92342925D01*
X176177431Y-92248623D01*
X176177430Y-92248623D01*
X176177429Y-92248622D01*
X175972534Y-92111715D01*
X175798285Y-91937466D01*
X175661378Y-91732571D01*
X175616083Y-91623218D01*
X175567075Y-91504903D01*
X175519000Y-91263214D01*
X175519000Y-91016786D01*
X175567075Y-90775097D01*
X175661377Y-90547431D01*
X175682495Y-90515826D01*
X175798285Y-90342534D01*
X175972534Y-90168285D01*
X176177429Y-90031378D01*
X176405097Y-89937075D01*
X176646786Y-89889000D01*
X176893214Y-89889000D01*
X177134903Y-89937075D01*
G37*
G36*
X200378604Y-88788347D02*
G01*
X200415144Y-88799432D01*
X200448821Y-88817433D01*
X200478341Y-88841659D01*
X200502567Y-88871179D01*
X200520568Y-88904856D01*
X200531653Y-88941396D01*
X200536000Y-88985538D01*
X200536000Y-90434462D01*
X200531653Y-90478604D01*
X200520568Y-90515144D01*
X200502567Y-90548821D01*
X200478341Y-90578341D01*
X200448821Y-90602567D01*
X200415144Y-90620568D01*
X200378604Y-90631653D01*
X200334462Y-90636000D01*
X199385538Y-90636000D01*
X199341396Y-90631653D01*
X199304856Y-90620568D01*
X199271179Y-90602567D01*
X199241659Y-90578341D01*
X199217433Y-90548821D01*
X199199432Y-90515144D01*
X199188347Y-90478604D01*
X199184000Y-90434462D01*
X199184000Y-88985538D01*
X199188347Y-88941396D01*
X199199432Y-88904856D01*
X199217433Y-88871179D01*
X199241659Y-88841659D01*
X199271179Y-88817433D01*
X199304856Y-88799432D01*
X199341396Y-88788347D01*
X199385538Y-88784000D01*
X200334462Y-88784000D01*
X200378604Y-88788347D01*
G37*
G36*
X197578604Y-88788347D02*
G01*
X197615144Y-88799432D01*
X197648821Y-88817433D01*
X197678341Y-88841659D01*
X197702567Y-88871179D01*
X197720568Y-88904856D01*
X197731653Y-88941396D01*
X197736000Y-88985538D01*
X197736000Y-90434462D01*
X197731653Y-90478604D01*
X197720568Y-90515144D01*
X197702567Y-90548821D01*
X197678341Y-90578341D01*
X197648821Y-90602567D01*
X197615144Y-90620568D01*
X197578604Y-90631653D01*
X197534462Y-90636000D01*
X196585538Y-90636000D01*
X196541396Y-90631653D01*
X196504856Y-90620568D01*
X196471179Y-90602567D01*
X196441659Y-90578341D01*
X196417433Y-90548821D01*
X196399432Y-90515144D01*
X196388347Y-90478604D01*
X196384000Y-90434462D01*
X196384000Y-88985538D01*
X196388347Y-88941396D01*
X196399432Y-88904856D01*
X196417433Y-88871179D01*
X196441659Y-88841659D01*
X196471179Y-88817433D01*
X196504856Y-88799432D01*
X196541396Y-88788347D01*
X196585538Y-88784000D01*
X197534462Y-88784000D01*
X197578604Y-88788347D01*
G37*
G36*
X206585997Y-86983051D02*
G01*
X206619652Y-86993261D01*
X206650665Y-87009838D01*
X206677851Y-87032149D01*
X206700162Y-87059335D01*
X206716739Y-87090348D01*
X206726949Y-87124003D01*
X206731000Y-87165138D01*
X206731000Y-90394862D01*
X206726949Y-90435997D01*
X206716739Y-90469652D01*
X206700162Y-90500665D01*
X206677851Y-90527851D01*
X206650665Y-90550162D01*
X206619652Y-90566739D01*
X206585997Y-90576949D01*
X206544862Y-90581000D01*
X205215138Y-90581000D01*
X205174003Y-90576949D01*
X205140348Y-90566739D01*
X205109335Y-90550162D01*
X205082149Y-90527851D01*
X205059838Y-90500665D01*
X205043261Y-90469652D01*
X205033051Y-90435997D01*
X205029000Y-90394862D01*
X205029000Y-87165138D01*
X205033051Y-87124003D01*
X205043261Y-87090348D01*
X205059838Y-87059335D01*
X205082149Y-87032149D01*
X205109335Y-87009838D01*
X205140348Y-86993261D01*
X205174003Y-86983051D01*
X205215138Y-86979000D01*
X206544862Y-86979000D01*
X206585997Y-86983051D01*
G37*
G36*
X188941000Y-90483500D02*
G01*
X186839000Y-90483500D01*
X186839000Y-88476500D01*
X188941000Y-88476500D01*
X188941000Y-90483500D01*
G37*
G36*
X212881000Y-90411000D02*
G01*
X211079000Y-90411000D01*
X211079000Y-88609000D01*
X212881000Y-88609000D01*
X212881000Y-90411000D01*
G37*
G36*
X191940528Y-88904174D02*
G01*
X191959059Y-88907860D01*
X192095732Y-88964472D01*
X192218735Y-89046660D01*
X192323340Y-89151265D01*
X192323341Y-89151267D01*
X192405529Y-89274270D01*
X192462140Y-89410941D01*
X192491000Y-89556032D01*
X192491000Y-89703968D01*
X192462140Y-89849059D01*
X192425683Y-89937075D01*
X192405528Y-89985732D01*
X192323340Y-90108735D01*
X192218735Y-90213340D01*
X192095732Y-90295528D01*
X192095731Y-90295529D01*
X192095730Y-90295529D01*
X191959059Y-90352140D01*
X191813968Y-90381000D01*
X191666032Y-90381000D01*
X191520941Y-90352140D01*
X191384270Y-90295529D01*
X191384269Y-90295529D01*
X191384268Y-90295528D01*
X191261265Y-90213340D01*
X191156660Y-90108735D01*
X191074472Y-89985732D01*
X191054318Y-89937075D01*
X191017860Y-89849059D01*
X190989000Y-89703968D01*
X190989000Y-89556032D01*
X191017860Y-89410941D01*
X191074471Y-89274270D01*
X191156659Y-89151267D01*
X191156660Y-89151265D01*
X191261265Y-89046660D01*
X191384268Y-88964472D01*
X191520941Y-88907860D01*
X191539472Y-88904174D01*
X191666032Y-88879000D01*
X191813968Y-88879000D01*
X191940528Y-88904174D01*
G37*
G36*
X194480528Y-88904174D02*
G01*
X194499059Y-88907860D01*
X194635732Y-88964472D01*
X194758735Y-89046660D01*
X194863340Y-89151265D01*
X194863341Y-89151267D01*
X194945529Y-89274270D01*
X195002140Y-89410941D01*
X195031000Y-89556032D01*
X195031000Y-89703968D01*
X195002140Y-89849059D01*
X194965683Y-89937075D01*
X194945528Y-89985732D01*
X194863340Y-90108735D01*
X194758735Y-90213340D01*
X194635732Y-90295528D01*
X194635731Y-90295529D01*
X194635730Y-90295529D01*
X194499059Y-90352140D01*
X194353968Y-90381000D01*
X194206032Y-90381000D01*
X194060941Y-90352140D01*
X193924270Y-90295529D01*
X193924269Y-90295529D01*
X193924268Y-90295528D01*
X193801265Y-90213340D01*
X193696660Y-90108735D01*
X193614472Y-89985732D01*
X193594318Y-89937075D01*
X193557860Y-89849059D01*
X193529000Y-89703968D01*
X193529000Y-89556032D01*
X193557860Y-89410941D01*
X193614471Y-89274270D01*
X193696659Y-89151267D01*
X193696660Y-89151265D01*
X193801265Y-89046660D01*
X193924268Y-88964472D01*
X194060941Y-88907860D01*
X194079472Y-88904174D01*
X194206032Y-88879000D01*
X194353968Y-88879000D01*
X194480528Y-88904174D01*
G37*
G36*
X188035936Y-85941340D02*
G01*
X188134220Y-85951020D01*
X188323381Y-86008401D01*
X188497712Y-86101583D01*
X188650515Y-86226985D01*
X188775917Y-86379788D01*
X188869099Y-86554119D01*
X188926480Y-86743280D01*
X188945855Y-86940000D01*
X188926480Y-87136720D01*
X188869099Y-87325881D01*
X188775917Y-87500212D01*
X188650515Y-87653015D01*
X188497712Y-87778417D01*
X188323381Y-87871599D01*
X188134220Y-87928980D01*
X188035936Y-87938660D01*
X187986795Y-87943500D01*
X187793205Y-87943500D01*
X187744064Y-87938660D01*
X187645780Y-87928980D01*
X187456619Y-87871599D01*
X187282288Y-87778417D01*
X187129485Y-87653015D01*
X187004083Y-87500212D01*
X186910901Y-87325881D01*
X186853520Y-87136720D01*
X186834145Y-86940000D01*
X186853520Y-86743280D01*
X186910901Y-86554119D01*
X187004083Y-86379788D01*
X187129485Y-86226985D01*
X187282288Y-86101583D01*
X187456619Y-86008401D01*
X187645780Y-85951020D01*
X187744064Y-85941340D01*
X187793205Y-85936500D01*
X187986795Y-85936500D01*
X188035936Y-85941340D01*
G37*
G36*
X198704928Y-84961764D02*
G01*
X198726009Y-84968160D01*
X198745445Y-84978548D01*
X198762476Y-84992524D01*
X198776452Y-85009555D01*
X198786840Y-85028991D01*
X198793236Y-85050072D01*
X198796000Y-85078140D01*
X198796000Y-86891860D01*
X198793236Y-86919928D01*
X198786840Y-86941009D01*
X198776452Y-86960445D01*
X198762476Y-86977476D01*
X198745445Y-86991452D01*
X198726009Y-87001840D01*
X198704928Y-87008236D01*
X198676860Y-87011000D01*
X198213140Y-87011000D01*
X198185072Y-87008236D01*
X198163991Y-87001840D01*
X198144555Y-86991452D01*
X198127524Y-86977476D01*
X198113548Y-86960445D01*
X198103160Y-86941009D01*
X198096764Y-86919928D01*
X198094000Y-86891860D01*
X198094000Y-85078140D01*
X198096764Y-85050072D01*
X198103160Y-85028991D01*
X198113548Y-85009555D01*
X198127524Y-84992524D01*
X198144555Y-84978548D01*
X198163991Y-84968160D01*
X198185072Y-84961764D01*
X198213140Y-84959000D01*
X198676860Y-84959000D01*
X198704928Y-84961764D01*
G37*
G36*
X196164928Y-84961764D02*
G01*
X196186009Y-84968160D01*
X196205445Y-84978548D01*
X196222476Y-84992524D01*
X196236452Y-85009555D01*
X196246840Y-85028991D01*
X196253236Y-85050072D01*
X196256000Y-85078140D01*
X196256000Y-86891860D01*
X196253236Y-86919928D01*
X196246840Y-86941009D01*
X196236452Y-86960445D01*
X196222476Y-86977476D01*
X196205445Y-86991452D01*
X196186009Y-87001840D01*
X196164928Y-87008236D01*
X196136860Y-87011000D01*
X195673140Y-87011000D01*
X195645072Y-87008236D01*
X195623991Y-87001840D01*
X195604555Y-86991452D01*
X195587524Y-86977476D01*
X195573548Y-86960445D01*
X195563160Y-86941009D01*
X195556764Y-86919928D01*
X195554000Y-86891860D01*
X195554000Y-85078140D01*
X195556764Y-85050072D01*
X195563160Y-85028991D01*
X195573548Y-85009555D01*
X195587524Y-84992524D01*
X195604555Y-84978548D01*
X195623991Y-84968160D01*
X195645072Y-84961764D01*
X195673140Y-84959000D01*
X196136860Y-84959000D01*
X196164928Y-84961764D01*
G37*
G36*
X194894928Y-84961764D02*
G01*
X194916009Y-84968160D01*
X194935445Y-84978548D01*
X194952476Y-84992524D01*
X194966452Y-85009555D01*
X194976840Y-85028991D01*
X194983236Y-85050072D01*
X194986000Y-85078140D01*
X194986000Y-86891860D01*
X194983236Y-86919928D01*
X194976840Y-86941009D01*
X194966452Y-86960445D01*
X194952476Y-86977476D01*
X194935445Y-86991452D01*
X194916009Y-87001840D01*
X194894928Y-87008236D01*
X194866860Y-87011000D01*
X194403140Y-87011000D01*
X194375072Y-87008236D01*
X194353991Y-87001840D01*
X194334555Y-86991452D01*
X194317524Y-86977476D01*
X194303548Y-86960445D01*
X194293160Y-86941009D01*
X194286764Y-86919928D01*
X194284000Y-86891860D01*
X194284000Y-85078140D01*
X194286764Y-85050072D01*
X194293160Y-85028991D01*
X194303548Y-85009555D01*
X194317524Y-84992524D01*
X194334555Y-84978548D01*
X194353991Y-84968160D01*
X194375072Y-84961764D01*
X194403140Y-84959000D01*
X194866860Y-84959000D01*
X194894928Y-84961764D01*
G37*
G36*
X197434928Y-84961764D02*
G01*
X197456009Y-84968160D01*
X197475445Y-84978548D01*
X197492476Y-84992524D01*
X197506452Y-85009555D01*
X197516840Y-85028991D01*
X197523236Y-85050072D01*
X197526000Y-85078140D01*
X197526000Y-86891860D01*
X197523236Y-86919928D01*
X197516840Y-86941009D01*
X197506452Y-86960445D01*
X197492476Y-86977476D01*
X197475445Y-86991452D01*
X197456009Y-87001840D01*
X197434928Y-87008236D01*
X197406860Y-87011000D01*
X196943140Y-87011000D01*
X196915072Y-87008236D01*
X196893991Y-87001840D01*
X196874555Y-86991452D01*
X196857524Y-86977476D01*
X196843548Y-86960445D01*
X196833160Y-86941009D01*
X196826764Y-86919928D01*
X196824000Y-86891860D01*
X196824000Y-85078140D01*
X196826764Y-85050072D01*
X196833160Y-85028991D01*
X196843548Y-85009555D01*
X196857524Y-84992524D01*
X196874555Y-84978548D01*
X196893991Y-84968160D01*
X196915072Y-84961764D01*
X196943140Y-84959000D01*
X197406860Y-84959000D01*
X197434928Y-84961764D01*
G37*
G36*
X207668674Y-84278465D02*
G01*
X207706367Y-84289899D01*
X207741103Y-84308466D01*
X207771548Y-84333452D01*
X207796534Y-84363897D01*
X207815101Y-84398633D01*
X207826535Y-84436326D01*
X207831000Y-84481661D01*
X207831000Y-85318339D01*
X207826535Y-85363674D01*
X207815101Y-85401367D01*
X207796534Y-85436103D01*
X207771548Y-85466548D01*
X207741103Y-85491534D01*
X207706367Y-85510101D01*
X207668674Y-85521535D01*
X207623339Y-85526000D01*
X206536661Y-85526000D01*
X206491326Y-85521535D01*
X206453633Y-85510101D01*
X206418897Y-85491534D01*
X206388452Y-85466548D01*
X206363466Y-85436103D01*
X206344899Y-85401367D01*
X206333465Y-85363674D01*
X206329000Y-85318339D01*
X206329000Y-84481661D01*
X206333465Y-84436326D01*
X206344899Y-84398633D01*
X206363466Y-84363897D01*
X206388452Y-84333452D01*
X206418897Y-84308466D01*
X206453633Y-84289899D01*
X206491326Y-84278465D01*
X206536661Y-84274000D01*
X207623339Y-84274000D01*
X207668674Y-84278465D01*
G37*
G36*
X205128674Y-84273465D02*
G01*
X205166367Y-84284899D01*
X205201103Y-84303466D01*
X205231548Y-84328452D01*
X205256534Y-84358897D01*
X205275101Y-84393633D01*
X205286535Y-84431326D01*
X205291000Y-84476661D01*
X205291000Y-85313339D01*
X205286535Y-85358674D01*
X205275101Y-85396367D01*
X205256534Y-85431103D01*
X205231548Y-85461548D01*
X205201103Y-85486534D01*
X205166367Y-85505101D01*
X205128674Y-85516535D01*
X205083339Y-85521000D01*
X203996661Y-85521000D01*
X203951326Y-85516535D01*
X203913633Y-85505101D01*
X203878897Y-85486534D01*
X203848452Y-85461548D01*
X203823466Y-85431103D01*
X203804899Y-85396367D01*
X203793465Y-85358674D01*
X203789000Y-85313339D01*
X203789000Y-84476661D01*
X203793465Y-84431326D01*
X203804899Y-84393633D01*
X203823466Y-84358897D01*
X203848452Y-84328452D01*
X203878897Y-84303466D01*
X203913633Y-84284899D01*
X203951326Y-84273465D01*
X203996661Y-84269000D01*
X205083339Y-84269000D01*
X205128674Y-84273465D01*
G37*
G36*
X202688674Y-84268465D02*
G01*
X202726367Y-84279899D01*
X202761103Y-84298466D01*
X202791548Y-84323452D01*
X202816534Y-84353897D01*
X202835101Y-84388633D01*
X202846535Y-84426326D01*
X202851000Y-84471661D01*
X202851000Y-85308339D01*
X202846535Y-85353674D01*
X202835101Y-85391367D01*
X202816534Y-85426103D01*
X202791548Y-85456548D01*
X202761103Y-85481534D01*
X202726367Y-85500101D01*
X202688674Y-85511535D01*
X202643339Y-85516000D01*
X201556661Y-85516000D01*
X201511326Y-85511535D01*
X201473633Y-85500101D01*
X201438897Y-85481534D01*
X201408452Y-85456548D01*
X201383466Y-85426103D01*
X201364899Y-85391367D01*
X201353465Y-85353674D01*
X201349000Y-85308339D01*
X201349000Y-84471661D01*
X201353465Y-84426326D01*
X201364899Y-84388633D01*
X201383466Y-84353897D01*
X201408452Y-84323452D01*
X201438897Y-84298466D01*
X201473633Y-84279899D01*
X201511326Y-84268465D01*
X201556661Y-84264000D01*
X202643339Y-84264000D01*
X202688674Y-84268465D01*
G37*
G36*
X188035936Y-83401340D02*
G01*
X188134220Y-83411020D01*
X188323381Y-83468401D01*
X188497712Y-83561583D01*
X188650515Y-83686985D01*
X188775917Y-83839788D01*
X188869099Y-84014119D01*
X188926480Y-84203280D01*
X188945855Y-84400000D01*
X188926480Y-84596720D01*
X188869099Y-84785881D01*
X188775917Y-84960212D01*
X188650515Y-85113015D01*
X188497712Y-85238417D01*
X188323381Y-85331599D01*
X188134220Y-85388980D01*
X188035936Y-85398660D01*
X187986795Y-85403500D01*
X187793205Y-85403500D01*
X187744064Y-85398660D01*
X187645780Y-85388980D01*
X187456619Y-85331599D01*
X187282288Y-85238417D01*
X187129485Y-85113015D01*
X187004083Y-84960212D01*
X186910901Y-84785881D01*
X186853520Y-84596720D01*
X186834145Y-84400000D01*
X186853520Y-84203280D01*
X186910901Y-84014119D01*
X187004083Y-83839788D01*
X187129485Y-83686985D01*
X187282288Y-83561583D01*
X187456619Y-83468401D01*
X187645780Y-83411020D01*
X187744064Y-83401340D01*
X187793205Y-83396500D01*
X187986795Y-83396500D01*
X188035936Y-83401340D01*
G37*
G36*
X177134903Y-82317075D02*
G01*
X177315830Y-82392017D01*
X177362571Y-82411378D01*
X177567466Y-82548285D01*
X177741715Y-82722534D01*
X177741716Y-82722536D01*
X177878623Y-82927431D01*
X177972925Y-83155097D01*
X178018911Y-83386282D01*
X178021000Y-83396787D01*
X178021000Y-83643213D01*
X177972925Y-83884903D01*
X177878622Y-84112571D01*
X177741715Y-84317466D01*
X177567466Y-84491715D01*
X177362571Y-84628622D01*
X177362570Y-84628623D01*
X177362569Y-84628623D01*
X177134903Y-84722925D01*
X176893214Y-84771000D01*
X176646786Y-84771000D01*
X176405097Y-84722925D01*
X176177431Y-84628623D01*
X176177430Y-84628623D01*
X176177429Y-84628622D01*
X175972534Y-84491715D01*
X175798285Y-84317466D01*
X175661378Y-84112571D01*
X175567075Y-83884903D01*
X175519000Y-83643213D01*
X175519000Y-83396787D01*
X175521090Y-83386282D01*
X175567075Y-83155097D01*
X175661377Y-82927431D01*
X175798284Y-82722536D01*
X175798285Y-82722534D01*
X175972534Y-82548285D01*
X176177429Y-82411378D01*
X176224171Y-82392017D01*
X176405097Y-82317075D01*
X176646786Y-82269000D01*
X176893214Y-82269000D01*
X177134903Y-82317075D01*
G37*
G36*
X207668674Y-82228465D02*
G01*
X207706367Y-82239899D01*
X207741103Y-82258466D01*
X207771548Y-82283452D01*
X207796534Y-82313897D01*
X207815101Y-82348633D01*
X207826535Y-82386326D01*
X207831000Y-82431661D01*
X207831000Y-83268339D01*
X207826535Y-83313674D01*
X207815101Y-83351367D01*
X207796534Y-83386103D01*
X207771548Y-83416548D01*
X207741103Y-83441534D01*
X207706367Y-83460101D01*
X207668674Y-83471535D01*
X207623339Y-83476000D01*
X206536661Y-83476000D01*
X206491326Y-83471535D01*
X206453633Y-83460101D01*
X206418897Y-83441534D01*
X206388452Y-83416548D01*
X206363466Y-83386103D01*
X206344899Y-83351367D01*
X206333465Y-83313674D01*
X206329000Y-83268339D01*
X206329000Y-82431661D01*
X206333465Y-82386326D01*
X206344899Y-82348633D01*
X206363466Y-82313897D01*
X206388452Y-82283452D01*
X206418897Y-82258466D01*
X206453633Y-82239899D01*
X206491326Y-82228465D01*
X206536661Y-82224000D01*
X207623339Y-82224000D01*
X207668674Y-82228465D01*
G37*
G36*
X205128674Y-82223465D02*
G01*
X205166367Y-82234899D01*
X205201103Y-82253466D01*
X205231548Y-82278452D01*
X205256534Y-82308897D01*
X205275101Y-82343633D01*
X205286535Y-82381326D01*
X205291000Y-82426661D01*
X205291000Y-83263339D01*
X205286535Y-83308674D01*
X205275101Y-83346367D01*
X205256534Y-83381103D01*
X205231548Y-83411548D01*
X205201103Y-83436534D01*
X205166367Y-83455101D01*
X205128674Y-83466535D01*
X205083339Y-83471000D01*
X203996661Y-83471000D01*
X203951326Y-83466535D01*
X203913633Y-83455101D01*
X203878897Y-83436534D01*
X203848452Y-83411548D01*
X203823466Y-83381103D01*
X203804899Y-83346367D01*
X203793465Y-83308674D01*
X203789000Y-83263339D01*
X203789000Y-82426661D01*
X203793465Y-82381326D01*
X203804899Y-82343633D01*
X203823466Y-82308897D01*
X203848452Y-82278452D01*
X203878897Y-82253466D01*
X203913633Y-82234899D01*
X203951326Y-82223465D01*
X203996661Y-82219000D01*
X205083339Y-82219000D01*
X205128674Y-82223465D01*
G37*
G36*
X202688674Y-82218465D02*
G01*
X202726367Y-82229899D01*
X202761103Y-82248466D01*
X202791548Y-82273452D01*
X202816534Y-82303897D01*
X202835101Y-82338633D01*
X202846535Y-82376326D01*
X202851000Y-82421661D01*
X202851000Y-83258339D01*
X202846535Y-83303674D01*
X202835101Y-83341367D01*
X202816534Y-83376103D01*
X202791548Y-83406548D01*
X202761103Y-83431534D01*
X202726367Y-83450101D01*
X202688674Y-83461535D01*
X202643339Y-83466000D01*
X201556661Y-83466000D01*
X201511326Y-83461535D01*
X201473633Y-83450101D01*
X201438897Y-83431534D01*
X201408452Y-83406548D01*
X201383466Y-83376103D01*
X201364899Y-83341367D01*
X201353465Y-83303674D01*
X201349000Y-83258339D01*
X201349000Y-82421661D01*
X201353465Y-82376326D01*
X201364899Y-82338633D01*
X201383466Y-82303897D01*
X201408452Y-82273452D01*
X201438897Y-82248466D01*
X201473633Y-82229899D01*
X201511326Y-82218465D01*
X201556661Y-82214000D01*
X202643339Y-82214000D01*
X202688674Y-82218465D01*
G37*
G36*
X198704928Y-80011764D02*
G01*
X198726009Y-80018160D01*
X198745445Y-80028548D01*
X198762476Y-80042524D01*
X198776452Y-80059555D01*
X198786840Y-80078991D01*
X198793236Y-80100072D01*
X198796000Y-80128140D01*
X198796000Y-81941860D01*
X198793236Y-81969928D01*
X198786840Y-81991009D01*
X198776452Y-82010445D01*
X198762476Y-82027476D01*
X198745445Y-82041452D01*
X198726009Y-82051840D01*
X198704928Y-82058236D01*
X198676860Y-82061000D01*
X198213140Y-82061000D01*
X198185072Y-82058236D01*
X198163991Y-82051840D01*
X198144555Y-82041452D01*
X198127524Y-82027476D01*
X198113548Y-82010445D01*
X198103160Y-81991009D01*
X198096764Y-81969928D01*
X198094000Y-81941860D01*
X198094000Y-80128140D01*
X198096764Y-80100072D01*
X198103160Y-80078991D01*
X198113548Y-80059555D01*
X198127524Y-80042524D01*
X198144555Y-80028548D01*
X198163991Y-80018160D01*
X198185072Y-80011764D01*
X198213140Y-80009000D01*
X198676860Y-80009000D01*
X198704928Y-80011764D01*
G37*
G36*
X197434928Y-80011764D02*
G01*
X197456009Y-80018160D01*
X197475445Y-80028548D01*
X197492476Y-80042524D01*
X197506452Y-80059555D01*
X197516840Y-80078991D01*
X197523236Y-80100072D01*
X197526000Y-80128140D01*
X197526000Y-81941860D01*
X197523236Y-81969928D01*
X197516840Y-81991009D01*
X197506452Y-82010445D01*
X197492476Y-82027476D01*
X197475445Y-82041452D01*
X197456009Y-82051840D01*
X197434928Y-82058236D01*
X197406860Y-82061000D01*
X196943140Y-82061000D01*
X196915072Y-82058236D01*
X196893991Y-82051840D01*
X196874555Y-82041452D01*
X196857524Y-82027476D01*
X196843548Y-82010445D01*
X196833160Y-81991009D01*
X196826764Y-81969928D01*
X196824000Y-81941860D01*
X196824000Y-80128140D01*
X196826764Y-80100072D01*
X196833160Y-80078991D01*
X196843548Y-80059555D01*
X196857524Y-80042524D01*
X196874555Y-80028548D01*
X196893991Y-80018160D01*
X196915072Y-80011764D01*
X196943140Y-80009000D01*
X197406860Y-80009000D01*
X197434928Y-80011764D01*
G37*
G36*
X196164928Y-80011764D02*
G01*
X196186009Y-80018160D01*
X196205445Y-80028548D01*
X196222476Y-80042524D01*
X196236452Y-80059555D01*
X196246840Y-80078991D01*
X196253236Y-80100072D01*
X196256000Y-80128140D01*
X196256000Y-81941860D01*
X196253236Y-81969928D01*
X196246840Y-81991009D01*
X196236452Y-82010445D01*
X196222476Y-82027476D01*
X196205445Y-82041452D01*
X196186009Y-82051840D01*
X196164928Y-82058236D01*
X196136860Y-82061000D01*
X195673140Y-82061000D01*
X195645072Y-82058236D01*
X195623991Y-82051840D01*
X195604555Y-82041452D01*
X195587524Y-82027476D01*
X195573548Y-82010445D01*
X195563160Y-81991009D01*
X195556764Y-81969928D01*
X195554000Y-81941860D01*
X195554000Y-80128140D01*
X195556764Y-80100072D01*
X195563160Y-80078991D01*
X195573548Y-80059555D01*
X195587524Y-80042524D01*
X195604555Y-80028548D01*
X195623991Y-80018160D01*
X195645072Y-80011764D01*
X195673140Y-80009000D01*
X196136860Y-80009000D01*
X196164928Y-80011764D01*
G37*
G36*
X194894928Y-80011764D02*
G01*
X194916009Y-80018160D01*
X194935445Y-80028548D01*
X194952476Y-80042524D01*
X194966452Y-80059555D01*
X194976840Y-80078991D01*
X194983236Y-80100072D01*
X194986000Y-80128140D01*
X194986000Y-81941860D01*
X194983236Y-81969928D01*
X194976840Y-81991009D01*
X194966452Y-82010445D01*
X194952476Y-82027476D01*
X194935445Y-82041452D01*
X194916009Y-82051840D01*
X194894928Y-82058236D01*
X194866860Y-82061000D01*
X194403140Y-82061000D01*
X194375072Y-82058236D01*
X194353991Y-82051840D01*
X194334555Y-82041452D01*
X194317524Y-82027476D01*
X194303548Y-82010445D01*
X194293160Y-81991009D01*
X194286764Y-81969928D01*
X194284000Y-81941860D01*
X194284000Y-80128140D01*
X194286764Y-80100072D01*
X194293160Y-80078991D01*
X194303548Y-80059555D01*
X194317524Y-80042524D01*
X194334555Y-80028548D01*
X194353991Y-80018160D01*
X194375072Y-80011764D01*
X194403140Y-80009000D01*
X194866860Y-80009000D01*
X194894928Y-80011764D01*
G37*
G36*
X195585562Y-76388181D02*
G01*
X195620481Y-76398774D01*
X195652663Y-76415976D01*
X195680873Y-76439127D01*
X195704024Y-76467337D01*
X195721226Y-76499519D01*
X195731819Y-76534438D01*
X195736000Y-76576895D01*
X195736000Y-78943105D01*
X195731819Y-78985562D01*
X195721226Y-79020481D01*
X195704024Y-79052663D01*
X195680873Y-79080873D01*
X195652663Y-79104024D01*
X195620481Y-79121226D01*
X195585562Y-79131819D01*
X195543105Y-79136000D01*
X194401895Y-79136000D01*
X194359438Y-79131819D01*
X194324519Y-79121226D01*
X194292337Y-79104024D01*
X194264127Y-79080873D01*
X194240976Y-79052663D01*
X194223774Y-79020481D01*
X194213181Y-78985562D01*
X194209000Y-78943105D01*
X194209000Y-76576895D01*
X194213181Y-76534438D01*
X194223774Y-76499519D01*
X194240976Y-76467337D01*
X194264127Y-76439127D01*
X194292337Y-76415976D01*
X194324519Y-76398774D01*
X194359438Y-76388181D01*
X194401895Y-76384000D01*
X195543105Y-76384000D01*
X195585562Y-76388181D01*
G37*
G36*
X198560562Y-76388181D02*
G01*
X198595481Y-76398774D01*
X198627663Y-76415976D01*
X198655873Y-76439127D01*
X198679024Y-76467337D01*
X198696226Y-76499519D01*
X198706819Y-76534438D01*
X198711000Y-76576895D01*
X198711000Y-78943105D01*
X198706819Y-78985562D01*
X198696226Y-79020481D01*
X198679024Y-79052663D01*
X198655873Y-79080873D01*
X198627663Y-79104024D01*
X198595481Y-79121226D01*
X198560562Y-79131819D01*
X198518105Y-79136000D01*
X197376895Y-79136000D01*
X197334438Y-79131819D01*
X197299519Y-79121226D01*
X197267337Y-79104024D01*
X197239127Y-79080873D01*
X197215976Y-79052663D01*
X197198774Y-79020481D01*
X197188181Y-78985562D01*
X197184000Y-78943105D01*
X197184000Y-76576895D01*
X197188181Y-76534438D01*
X197198774Y-76499519D01*
X197215976Y-76467337D01*
X197239127Y-76439127D01*
X197267337Y-76415976D01*
X197299519Y-76398774D01*
X197334438Y-76388181D01*
X197376895Y-76384000D01*
X198518105Y-76384000D01*
X198560562Y-76388181D01*
G37*
M02*
