G04 #@! TF.GenerationSoftware,KiCad,Pcbnew,5.1.5+dfsg1-2build2*
G04 #@! TF.CreationDate,2020-12-07T20:52:04+03:00*
G04 #@! TF.ProjectId,PowerNeg,506f7765-724e-4656-972e-6b696361645f,rev?*
G04 #@! TF.SameCoordinates,Original*
G04 #@! TF.FileFunction,Soldermask,Bot*
G04 #@! TF.FilePolarity,Negative*
%FSLAX46Y46*%
G04 Gerber Fmt 4.6, Leading zero omitted, Abs format (unit mm)*
G04 Created by KiCad (PCBNEW 5.1.5+dfsg1-2build2) date 2020-12-07 20:52:04*
%MOMM*%
%LPD*%
G04 APERTURE LIST*
%ADD10C,0.100000*%
G04 APERTURE END LIST*
D10*
G36*
X176001000Y-105001000D02*
G01*
X174199000Y-105001000D01*
X174199000Y-103199000D01*
X176001000Y-103199000D01*
X176001000Y-105001000D01*
G37*
G36*
X175213512Y-100663927D02*
G01*
X175362812Y-100693624D01*
X175526784Y-100761544D01*
X175674354Y-100860147D01*
X175799853Y-100985646D01*
X175898456Y-101133216D01*
X175966376Y-101297188D01*
X176001000Y-101471259D01*
X176001000Y-101648741D01*
X175966376Y-101822812D01*
X175898456Y-101986784D01*
X175799853Y-102134354D01*
X175674354Y-102259853D01*
X175526784Y-102358456D01*
X175362812Y-102426376D01*
X175213512Y-102456073D01*
X175188742Y-102461000D01*
X175011258Y-102461000D01*
X174986488Y-102456073D01*
X174837188Y-102426376D01*
X174673216Y-102358456D01*
X174525646Y-102259853D01*
X174400147Y-102134354D01*
X174301544Y-101986784D01*
X174233624Y-101822812D01*
X174199000Y-101648741D01*
X174199000Y-101471259D01*
X174233624Y-101297188D01*
X174301544Y-101133216D01*
X174400147Y-100985646D01*
X174525646Y-100860147D01*
X174673216Y-100761544D01*
X174837188Y-100693624D01*
X174986488Y-100663927D01*
X175011258Y-100659000D01*
X175188742Y-100659000D01*
X175213512Y-100663927D01*
G37*
G36*
X212093512Y-91153927D02*
G01*
X212242812Y-91183624D01*
X212406784Y-91251544D01*
X212554354Y-91350147D01*
X212679853Y-91475646D01*
X212778456Y-91623216D01*
X212846376Y-91787188D01*
X212881000Y-91961259D01*
X212881000Y-92138741D01*
X212846376Y-92312812D01*
X212778456Y-92476784D01*
X212679853Y-92624354D01*
X212554354Y-92749853D01*
X212406784Y-92848456D01*
X212242812Y-92916376D01*
X212093512Y-92946073D01*
X212068742Y-92951000D01*
X211891258Y-92951000D01*
X211866488Y-92946073D01*
X211717188Y-92916376D01*
X211553216Y-92848456D01*
X211405646Y-92749853D01*
X211280147Y-92624354D01*
X211181544Y-92476784D01*
X211113624Y-92312812D01*
X211079000Y-92138741D01*
X211079000Y-91961259D01*
X211113624Y-91787188D01*
X211181544Y-91623216D01*
X211280147Y-91475646D01*
X211405646Y-91350147D01*
X211553216Y-91251544D01*
X211717188Y-91183624D01*
X211866488Y-91153927D01*
X211891258Y-91149000D01*
X212068742Y-91149000D01*
X212093512Y-91153927D01*
G37*
G36*
X177134903Y-89937075D02*
G01*
X177362571Y-90031378D01*
X177567466Y-90168285D01*
X177741715Y-90342534D01*
X177835906Y-90483500D01*
X177878623Y-90547431D01*
X177972925Y-90775097D01*
X178021000Y-91016786D01*
X178021000Y-91263214D01*
X177972925Y-91504903D01*
X177923918Y-91623218D01*
X177878622Y-91732571D01*
X177741715Y-91937466D01*
X177567466Y-92111715D01*
X177362571Y-92248622D01*
X177362570Y-92248623D01*
X177362569Y-92248623D01*
X177134903Y-92342925D01*
X176893214Y-92391000D01*
X176646786Y-92391000D01*
X176405097Y-92342925D01*
X176177431Y-92248623D01*
X176177430Y-92248623D01*
X176177429Y-92248622D01*
X175972534Y-92111715D01*
X175798285Y-91937466D01*
X175661378Y-91732571D01*
X175616083Y-91623218D01*
X175567075Y-91504903D01*
X175519000Y-91263214D01*
X175519000Y-91016786D01*
X175567075Y-90775097D01*
X175661377Y-90547431D01*
X175704094Y-90483500D01*
X175798285Y-90342534D01*
X175972534Y-90168285D01*
X176177429Y-90031378D01*
X176405097Y-89937075D01*
X176646786Y-89889000D01*
X176893214Y-89889000D01*
X177134903Y-89937075D01*
G37*
G36*
X188941000Y-90483500D02*
G01*
X186839000Y-90483500D01*
X186839000Y-88476500D01*
X188941000Y-88476500D01*
X188941000Y-90483500D01*
G37*
G36*
X212881000Y-90411000D02*
G01*
X211079000Y-90411000D01*
X211079000Y-88609000D01*
X212881000Y-88609000D01*
X212881000Y-90411000D01*
G37*
G36*
X191959059Y-88907860D02*
G01*
X192095732Y-88964472D01*
X192218735Y-89046660D01*
X192323340Y-89151265D01*
X192323341Y-89151267D01*
X192405529Y-89274270D01*
X192462140Y-89410941D01*
X192491000Y-89556032D01*
X192491000Y-89703968D01*
X192462140Y-89849059D01*
X192425683Y-89937075D01*
X192405528Y-89985732D01*
X192323340Y-90108735D01*
X192218735Y-90213340D01*
X192095732Y-90295528D01*
X192095731Y-90295529D01*
X192095730Y-90295529D01*
X191959059Y-90352140D01*
X191813968Y-90381000D01*
X191666032Y-90381000D01*
X191520941Y-90352140D01*
X191384270Y-90295529D01*
X191384269Y-90295529D01*
X191384268Y-90295528D01*
X191261265Y-90213340D01*
X191156660Y-90108735D01*
X191074472Y-89985732D01*
X191054318Y-89937075D01*
X191017860Y-89849059D01*
X190989000Y-89703968D01*
X190989000Y-89556032D01*
X191017860Y-89410941D01*
X191074471Y-89274270D01*
X191156659Y-89151267D01*
X191156660Y-89151265D01*
X191261265Y-89046660D01*
X191384268Y-88964472D01*
X191520941Y-88907860D01*
X191666032Y-88879000D01*
X191813968Y-88879000D01*
X191959059Y-88907860D01*
G37*
G36*
X194499059Y-88907860D02*
G01*
X194635732Y-88964472D01*
X194758735Y-89046660D01*
X194863340Y-89151265D01*
X194863341Y-89151267D01*
X194945529Y-89274270D01*
X195002140Y-89410941D01*
X195031000Y-89556032D01*
X195031000Y-89703968D01*
X195002140Y-89849059D01*
X194965683Y-89937075D01*
X194945528Y-89985732D01*
X194863340Y-90108735D01*
X194758735Y-90213340D01*
X194635732Y-90295528D01*
X194635731Y-90295529D01*
X194635730Y-90295529D01*
X194499059Y-90352140D01*
X194353968Y-90381000D01*
X194206032Y-90381000D01*
X194060941Y-90352140D01*
X193924270Y-90295529D01*
X193924269Y-90295529D01*
X193924268Y-90295528D01*
X193801265Y-90213340D01*
X193696660Y-90108735D01*
X193614472Y-89985732D01*
X193594318Y-89937075D01*
X193557860Y-89849059D01*
X193529000Y-89703968D01*
X193529000Y-89556032D01*
X193557860Y-89410941D01*
X193614471Y-89274270D01*
X193696659Y-89151267D01*
X193696660Y-89151265D01*
X193801265Y-89046660D01*
X193924268Y-88964472D01*
X194060941Y-88907860D01*
X194206032Y-88879000D01*
X194353968Y-88879000D01*
X194499059Y-88907860D01*
G37*
G36*
X188035936Y-85941340D02*
G01*
X188134220Y-85951020D01*
X188323381Y-86008401D01*
X188497712Y-86101583D01*
X188650515Y-86226985D01*
X188775917Y-86379788D01*
X188869099Y-86554119D01*
X188926480Y-86743280D01*
X188945855Y-86940000D01*
X188926480Y-87136720D01*
X188869099Y-87325881D01*
X188775917Y-87500212D01*
X188650515Y-87653015D01*
X188497712Y-87778417D01*
X188323381Y-87871599D01*
X188134220Y-87928980D01*
X188035936Y-87938660D01*
X187986795Y-87943500D01*
X187793205Y-87943500D01*
X187744064Y-87938660D01*
X187645780Y-87928980D01*
X187456619Y-87871599D01*
X187282288Y-87778417D01*
X187129485Y-87653015D01*
X187004083Y-87500212D01*
X186910901Y-87325881D01*
X186853520Y-87136720D01*
X186834145Y-86940000D01*
X186853520Y-86743280D01*
X186910901Y-86554119D01*
X187004083Y-86379788D01*
X187129485Y-86226985D01*
X187282288Y-86101583D01*
X187456619Y-86008401D01*
X187645780Y-85951020D01*
X187744064Y-85941340D01*
X187793205Y-85936500D01*
X187986795Y-85936500D01*
X188035936Y-85941340D01*
G37*
G36*
X188035936Y-83401340D02*
G01*
X188134220Y-83411020D01*
X188323381Y-83468401D01*
X188497712Y-83561583D01*
X188650515Y-83686985D01*
X188775917Y-83839788D01*
X188869099Y-84014119D01*
X188926480Y-84203280D01*
X188945855Y-84400000D01*
X188926480Y-84596720D01*
X188869099Y-84785881D01*
X188775917Y-84960212D01*
X188650515Y-85113015D01*
X188497712Y-85238417D01*
X188323381Y-85331599D01*
X188134220Y-85388980D01*
X188035936Y-85398660D01*
X187986795Y-85403500D01*
X187793205Y-85403500D01*
X187744064Y-85398660D01*
X187645780Y-85388980D01*
X187456619Y-85331599D01*
X187282288Y-85238417D01*
X187129485Y-85113015D01*
X187004083Y-84960212D01*
X186910901Y-84785881D01*
X186853520Y-84596720D01*
X186834145Y-84400000D01*
X186853520Y-84203280D01*
X186910901Y-84014119D01*
X187004083Y-83839788D01*
X187129485Y-83686985D01*
X187282288Y-83561583D01*
X187456619Y-83468401D01*
X187645780Y-83411020D01*
X187744064Y-83401340D01*
X187793205Y-83396500D01*
X187986795Y-83396500D01*
X188035936Y-83401340D01*
G37*
G36*
X177134903Y-82317075D02*
G01*
X177362571Y-82411378D01*
X177567466Y-82548285D01*
X177741715Y-82722534D01*
X177878622Y-82927429D01*
X177972925Y-83155097D01*
X178021000Y-83396787D01*
X178021000Y-83643213D01*
X177972925Y-83884903D01*
X177878622Y-84112571D01*
X177741715Y-84317466D01*
X177567466Y-84491715D01*
X177362571Y-84628622D01*
X177362570Y-84628623D01*
X177362569Y-84628623D01*
X177134903Y-84722925D01*
X176893214Y-84771000D01*
X176646786Y-84771000D01*
X176405097Y-84722925D01*
X176177431Y-84628623D01*
X176177430Y-84628623D01*
X176177429Y-84628622D01*
X175972534Y-84491715D01*
X175798285Y-84317466D01*
X175661378Y-84112571D01*
X175567075Y-83884903D01*
X175519000Y-83643213D01*
X175519000Y-83396787D01*
X175567075Y-83155097D01*
X175661378Y-82927429D01*
X175798285Y-82722534D01*
X175972534Y-82548285D01*
X176177429Y-82411378D01*
X176405097Y-82317075D01*
X176646786Y-82269000D01*
X176893214Y-82269000D01*
X177134903Y-82317075D01*
G37*
M02*
