G04 #@! TF.GenerationSoftware,KiCad,Pcbnew,5.1.5+dfsg1-2build2*
G04 #@! TF.CreationDate,2020-12-07T20:52:04+03:00*
G04 #@! TF.ProjectId,PowerNeg,506f7765-724e-4656-972e-6b696361645f,rev?*
G04 #@! TF.SameCoordinates,Original*
G04 #@! TF.FileFunction,Legend,Top*
G04 #@! TF.FilePolarity,Positive*
%FSLAX46Y46*%
G04 Gerber Fmt 4.6, Leading zero omitted, Abs format (unit mm)*
G04 Created by KiCad (PCBNEW 5.1.5+dfsg1-2build2) date 2020-12-07 20:52:04*
%MOMM*%
%LPD*%
G04 APERTURE LIST*
%ADD10C,0.150000*%
%ADD11C,0.120000*%
G04 APERTURE END LIST*
D10*
X213312380Y-99068571D02*
X212312380Y-99068571D01*
X213312380Y-98592380D02*
X212312380Y-98592380D01*
X213312380Y-98020952D01*
X212312380Y-98020952D01*
X212931428Y-96782857D02*
X212931428Y-96020952D01*
X213312380Y-96401904D02*
X212550476Y-96401904D01*
X212312380Y-95068571D02*
X212312380Y-95544761D01*
X212788571Y-95592380D01*
X212740952Y-95544761D01*
X212693333Y-95449523D01*
X212693333Y-95211428D01*
X212740952Y-95116190D01*
X212788571Y-95068571D01*
X212883809Y-95020952D01*
X213121904Y-95020952D01*
X213217142Y-95068571D01*
X213264761Y-95116190D01*
X213312380Y-95211428D01*
X213312380Y-95449523D01*
X213264761Y-95544761D01*
X213217142Y-95592380D01*
X212312380Y-94735238D02*
X213312380Y-94401904D01*
X212312380Y-94068571D01*
X173150000Y-98172380D02*
X173340476Y-98172380D01*
X173435714Y-98220000D01*
X173530952Y-98315238D01*
X173578571Y-98505714D01*
X173578571Y-98839047D01*
X173530952Y-99029523D01*
X173435714Y-99124761D01*
X173340476Y-99172380D01*
X173150000Y-99172380D01*
X173054761Y-99124761D01*
X172959523Y-99029523D01*
X172911904Y-98839047D01*
X172911904Y-98505714D01*
X172959523Y-98315238D01*
X173054761Y-98220000D01*
X173150000Y-98172380D01*
X174007142Y-98172380D02*
X174007142Y-98981904D01*
X174054761Y-99077142D01*
X174102380Y-99124761D01*
X174197619Y-99172380D01*
X174388095Y-99172380D01*
X174483333Y-99124761D01*
X174530952Y-99077142D01*
X174578571Y-98981904D01*
X174578571Y-98172380D01*
X174911904Y-98172380D02*
X175483333Y-98172380D01*
X175197619Y-99172380D02*
X175197619Y-98172380D01*
X169304285Y-98841428D02*
X170066190Y-98841428D01*
X170590000Y-99222380D02*
X170780476Y-99222380D01*
X170875714Y-99174761D01*
X170923333Y-99127142D01*
X171018571Y-98984285D01*
X171066190Y-98793809D01*
X171066190Y-98412857D01*
X171018571Y-98317619D01*
X170970952Y-98270000D01*
X170875714Y-98222380D01*
X170685238Y-98222380D01*
X170590000Y-98270000D01*
X170542380Y-98317619D01*
X170494761Y-98412857D01*
X170494761Y-98650952D01*
X170542380Y-98746190D01*
X170590000Y-98793809D01*
X170685238Y-98841428D01*
X170875714Y-98841428D01*
X170970952Y-98793809D01*
X171018571Y-98746190D01*
X171066190Y-98650952D01*
X171351904Y-98222380D02*
X171685238Y-99222380D01*
X172018571Y-98222380D01*
D11*
X199062064Y-90620000D02*
X197857936Y-90620000D01*
X199062064Y-88800000D02*
X197857936Y-88800000D01*
X194200000Y-91440000D02*
X194200000Y-95740000D01*
X194200000Y-95740000D02*
X199900000Y-95740000D01*
X194200000Y-91440000D02*
X199900000Y-91440000D01*
X176430000Y-105430000D02*
X175100000Y-105430000D01*
X176430000Y-104100000D02*
X176430000Y-105430000D01*
X176430000Y-102830000D02*
X173770000Y-102830000D01*
X173770000Y-102830000D02*
X173770000Y-100230000D01*
X176430000Y-102830000D02*
X176430000Y-100230000D01*
X176430000Y-100230000D02*
X173770000Y-100230000D01*
X210650000Y-93380000D02*
X213310000Y-93380000D01*
X210650000Y-90780000D02*
X210650000Y-93380000D01*
X213310000Y-90780000D02*
X213310000Y-93380000D01*
X210650000Y-90780000D02*
X213310000Y-90780000D01*
X210650000Y-89510000D02*
X210650000Y-88180000D01*
X210650000Y-88180000D02*
X211980000Y-88180000D01*
X178090000Y-85128209D02*
G75*
G02X175450000Y-85128210I-1320000J-6011791D01*
G01*
X201390000Y-83603748D02*
X201390000Y-84126252D01*
X202810000Y-83603748D02*
X202810000Y-84126252D01*
X207790000Y-83613748D02*
X207790000Y-84136252D01*
X206370000Y-83613748D02*
X206370000Y-84136252D01*
X197062064Y-79120000D02*
X195857936Y-79120000D01*
X197062064Y-76400000D02*
X195857936Y-76400000D01*
X199100000Y-83510000D02*
X199100000Y-81560000D01*
X199100000Y-83510000D02*
X199100000Y-85460000D01*
X193980000Y-83510000D02*
X193980000Y-81560000D01*
X193980000Y-83510000D02*
X193980000Y-86960000D01*
X205250000Y-83608748D02*
X205250000Y-84131252D01*
X203830000Y-83608748D02*
X203830000Y-84131252D01*
X196180000Y-98780000D02*
X196180000Y-102630000D01*
X196180000Y-109500000D02*
X196180000Y-105650000D01*
X205835563Y-109500000D02*
X196180000Y-109500000D01*
X205835563Y-98780000D02*
X196180000Y-98780000D01*
X206900000Y-99844437D02*
X206900000Y-102630000D01*
X206900000Y-108435563D02*
X206900000Y-105650000D01*
X206900000Y-108435563D02*
X205835563Y-109500000D01*
X206900000Y-99844437D02*
X205835563Y-98780000D01*
X208390000Y-106900000D02*
X207140000Y-106900000D01*
X207765000Y-107525000D02*
X207765000Y-106275000D01*
X179645000Y-100815000D02*
X179645000Y-102065000D01*
X179020000Y-101440000D02*
X180270000Y-101440000D01*
X180510000Y-108495563D02*
X181574437Y-109560000D01*
X180510000Y-99904437D02*
X181574437Y-98840000D01*
X180510000Y-99904437D02*
X180510000Y-102690000D01*
X180510000Y-108495563D02*
X180510000Y-105710000D01*
X181574437Y-109560000D02*
X191230000Y-109560000D01*
X181574437Y-98840000D02*
X191230000Y-98840000D01*
X191230000Y-98840000D02*
X191230000Y-102690000D01*
X191230000Y-109560000D02*
X191230000Y-105710000D01*
X195200000Y-89630000D02*
G75*
G03X195200000Y-89630000I-920000J0D01*
G01*
X193360000Y-89630000D02*
X192740000Y-89630000D01*
X202470000Y-94890000D02*
X204820000Y-94890000D01*
X209290000Y-94890000D02*
X206940000Y-94890000D01*
X209290000Y-89134437D02*
X209290000Y-94890000D01*
X202470000Y-89134437D02*
X202470000Y-94890000D01*
X203534437Y-88070000D02*
X204820000Y-88070000D01*
X208225563Y-88070000D02*
X206940000Y-88070000D01*
X208225563Y-88070000D02*
X209290000Y-89134437D01*
X203534437Y-88070000D02*
X202470000Y-89134437D01*
X207727500Y-87042500D02*
X207727500Y-87830000D01*
X208121250Y-87436250D02*
X207333750Y-87436250D01*
X184620000Y-92060000D02*
X184620000Y-81820000D01*
X189261000Y-92060000D02*
X189261000Y-81820000D01*
X184620000Y-92060000D02*
X189261000Y-92060000D01*
X184620000Y-81820000D02*
X189261000Y-81820000D01*
X186130000Y-92060000D02*
X186130000Y-81820000D01*
X184620000Y-88790000D02*
X186130000Y-88790000D01*
X184620000Y-85089000D02*
X186130000Y-85089000D01*
D10*
X200983333Y-88037142D02*
X200935714Y-88084761D01*
X200792857Y-88132380D01*
X200697619Y-88132380D01*
X200554761Y-88084761D01*
X200459523Y-87989523D01*
X200411904Y-87894285D01*
X200364285Y-87703809D01*
X200364285Y-87560952D01*
X200411904Y-87370476D01*
X200459523Y-87275238D01*
X200554761Y-87180000D01*
X200697619Y-87132380D01*
X200792857Y-87132380D01*
X200935714Y-87180000D01*
X200983333Y-87227619D01*
X201364285Y-87227619D02*
X201411904Y-87180000D01*
X201507142Y-87132380D01*
X201745238Y-87132380D01*
X201840476Y-87180000D01*
X201888095Y-87227619D01*
X201935714Y-87322857D01*
X201935714Y-87418095D01*
X201888095Y-87560952D01*
X201316666Y-88132380D01*
X201935714Y-88132380D01*
X194001904Y-97402380D02*
X194001904Y-96402380D01*
X194240000Y-96402380D01*
X194382857Y-96450000D01*
X194478095Y-96545238D01*
X194525714Y-96640476D01*
X194573333Y-96830952D01*
X194573333Y-96973809D01*
X194525714Y-97164285D01*
X194478095Y-97259523D01*
X194382857Y-97354761D01*
X194240000Y-97402380D01*
X194001904Y-97402380D01*
X195525714Y-97402380D02*
X194954285Y-97402380D01*
X195240000Y-97402380D02*
X195240000Y-96402380D01*
X195144761Y-96545238D01*
X195049523Y-96640476D01*
X194954285Y-96688095D01*
X174766666Y-105882380D02*
X174766666Y-106596666D01*
X174719047Y-106739523D01*
X174623809Y-106834761D01*
X174480952Y-106882380D01*
X174385714Y-106882380D01*
X175766666Y-106882380D02*
X175195238Y-106882380D01*
X175480952Y-106882380D02*
X175480952Y-105882380D01*
X175385714Y-106025238D01*
X175290476Y-106120476D01*
X175195238Y-106168095D01*
X211646666Y-86632380D02*
X211646666Y-87346666D01*
X211599047Y-87489523D01*
X211503809Y-87584761D01*
X211360952Y-87632380D01*
X211265714Y-87632380D01*
X212075238Y-86727619D02*
X212122857Y-86680000D01*
X212218095Y-86632380D01*
X212456190Y-86632380D01*
X212551428Y-86680000D01*
X212599047Y-86727619D01*
X212646666Y-86822857D01*
X212646666Y-86918095D01*
X212599047Y-87060952D01*
X212027619Y-87632380D01*
X212646666Y-87632380D01*
X170067380Y-87496666D02*
X170067380Y-87972857D01*
X169067380Y-87972857D01*
X170067380Y-86639523D02*
X170067380Y-87210952D01*
X170067380Y-86925238D02*
X169067380Y-86925238D01*
X169210238Y-87020476D01*
X169305476Y-87115714D01*
X169353095Y-87210952D01*
X202732380Y-80856666D02*
X202256190Y-81190000D01*
X202732380Y-81428095D02*
X201732380Y-81428095D01*
X201732380Y-81047142D01*
X201780000Y-80951904D01*
X201827619Y-80904285D01*
X201922857Y-80856666D01*
X202065714Y-80856666D01*
X202160952Y-80904285D01*
X202208571Y-80951904D01*
X202256190Y-81047142D01*
X202256190Y-81428095D01*
X202732380Y-79904285D02*
X202732380Y-80475714D01*
X202732380Y-80190000D02*
X201732380Y-80190000D01*
X201875238Y-80285238D01*
X201970476Y-80380476D01*
X202018095Y-80475714D01*
X207512380Y-80716666D02*
X207036190Y-81050000D01*
X207512380Y-81288095D02*
X206512380Y-81288095D01*
X206512380Y-80907142D01*
X206560000Y-80811904D01*
X206607619Y-80764285D01*
X206702857Y-80716666D01*
X206845714Y-80716666D01*
X206940952Y-80764285D01*
X206988571Y-80811904D01*
X207036190Y-80907142D01*
X207036190Y-81288095D01*
X206607619Y-80335714D02*
X206560000Y-80288095D01*
X206512380Y-80192857D01*
X206512380Y-79954761D01*
X206560000Y-79859523D01*
X206607619Y-79811904D01*
X206702857Y-79764285D01*
X206798095Y-79764285D01*
X206940952Y-79811904D01*
X207512380Y-80383333D01*
X207512380Y-79764285D01*
X200433333Y-78212380D02*
X200100000Y-77736190D01*
X199861904Y-78212380D02*
X199861904Y-77212380D01*
X200242857Y-77212380D01*
X200338095Y-77260000D01*
X200385714Y-77307619D01*
X200433333Y-77402857D01*
X200433333Y-77545714D01*
X200385714Y-77640952D01*
X200338095Y-77688571D01*
X200242857Y-77736190D01*
X199861904Y-77736190D01*
X200766666Y-77212380D02*
X201385714Y-77212380D01*
X201052380Y-77593333D01*
X201195238Y-77593333D01*
X201290476Y-77640952D01*
X201338095Y-77688571D01*
X201385714Y-77783809D01*
X201385714Y-78021904D01*
X201338095Y-78117142D01*
X201290476Y-78164761D01*
X201195238Y-78212380D01*
X200909523Y-78212380D01*
X200814285Y-78164761D01*
X200766666Y-78117142D01*
X192592380Y-84271904D02*
X193401904Y-84271904D01*
X193497142Y-84224285D01*
X193544761Y-84176666D01*
X193592380Y-84081428D01*
X193592380Y-83890952D01*
X193544761Y-83795714D01*
X193497142Y-83748095D01*
X193401904Y-83700476D01*
X192592380Y-83700476D01*
X193592380Y-82700476D02*
X193592380Y-83271904D01*
X193592380Y-82986190D02*
X192592380Y-82986190D01*
X192735238Y-83081428D01*
X192830476Y-83176666D01*
X192878095Y-83271904D01*
X204922380Y-80786666D02*
X204446190Y-81120000D01*
X204922380Y-81358095D02*
X203922380Y-81358095D01*
X203922380Y-80977142D01*
X203970000Y-80881904D01*
X204017619Y-80834285D01*
X204112857Y-80786666D01*
X204255714Y-80786666D01*
X204350952Y-80834285D01*
X204398571Y-80881904D01*
X204446190Y-80977142D01*
X204446190Y-81358095D01*
X204255714Y-79929523D02*
X204922380Y-79929523D01*
X203874761Y-80167619D02*
X204589047Y-80405714D01*
X204589047Y-79786666D01*
X202053333Y-97817142D02*
X202005714Y-97864761D01*
X201862857Y-97912380D01*
X201767619Y-97912380D01*
X201624761Y-97864761D01*
X201529523Y-97769523D01*
X201481904Y-97674285D01*
X201434285Y-97483809D01*
X201434285Y-97340952D01*
X201481904Y-97150476D01*
X201529523Y-97055238D01*
X201624761Y-96960000D01*
X201767619Y-96912380D01*
X201862857Y-96912380D01*
X202005714Y-96960000D01*
X202053333Y-97007619D01*
X203005714Y-97912380D02*
X202434285Y-97912380D01*
X202720000Y-97912380D02*
X202720000Y-96912380D01*
X202624761Y-97055238D01*
X202529523Y-97150476D01*
X202434285Y-97198095D01*
X185703333Y-98257142D02*
X185655714Y-98304761D01*
X185512857Y-98352380D01*
X185417619Y-98352380D01*
X185274761Y-98304761D01*
X185179523Y-98209523D01*
X185131904Y-98114285D01*
X185084285Y-97923809D01*
X185084285Y-97780952D01*
X185131904Y-97590476D01*
X185179523Y-97495238D01*
X185274761Y-97400000D01*
X185417619Y-97352380D01*
X185512857Y-97352380D01*
X185655714Y-97400000D01*
X185703333Y-97447619D01*
X186560476Y-97685714D02*
X186560476Y-98352380D01*
X186322380Y-97304761D02*
X186084285Y-98019047D01*
X186703333Y-98019047D01*
X192843333Y-92002380D02*
X192510000Y-91526190D01*
X192271904Y-92002380D02*
X192271904Y-91002380D01*
X192652857Y-91002380D01*
X192748095Y-91050000D01*
X192795714Y-91097619D01*
X192843333Y-91192857D01*
X192843333Y-91335714D01*
X192795714Y-91430952D01*
X192748095Y-91478571D01*
X192652857Y-91526190D01*
X192271904Y-91526190D01*
X193748095Y-91002380D02*
X193271904Y-91002380D01*
X193224285Y-91478571D01*
X193271904Y-91430952D01*
X193367142Y-91383333D01*
X193605238Y-91383333D01*
X193700476Y-91430952D01*
X193748095Y-91478571D01*
X193795714Y-91573809D01*
X193795714Y-91811904D01*
X193748095Y-91907142D01*
X193700476Y-91954761D01*
X193605238Y-92002380D01*
X193367142Y-92002380D01*
X193271904Y-91954761D01*
X193224285Y-91907142D01*
X208727142Y-97036666D02*
X208774761Y-97084285D01*
X208822380Y-97227142D01*
X208822380Y-97322380D01*
X208774761Y-97465238D01*
X208679523Y-97560476D01*
X208584285Y-97608095D01*
X208393809Y-97655714D01*
X208250952Y-97655714D01*
X208060476Y-97608095D01*
X207965238Y-97560476D01*
X207870000Y-97465238D01*
X207822380Y-97322380D01*
X207822380Y-97227142D01*
X207870000Y-97084285D01*
X207917619Y-97036666D01*
X207822380Y-96703333D02*
X207822380Y-96084285D01*
X208203333Y-96417619D01*
X208203333Y-96274761D01*
X208250952Y-96179523D01*
X208298571Y-96131904D01*
X208393809Y-96084285D01*
X208631904Y-96084285D01*
X208727142Y-96131904D01*
X208774761Y-96179523D01*
X208822380Y-96274761D01*
X208822380Y-96560476D01*
X208774761Y-96655714D01*
X208727142Y-96703333D01*
X184167619Y-87035238D02*
X184120000Y-87130476D01*
X184024761Y-87225714D01*
X183881904Y-87368571D01*
X183834285Y-87463809D01*
X183834285Y-87559047D01*
X184072380Y-87511428D02*
X184024761Y-87606666D01*
X183929523Y-87701904D01*
X183739047Y-87749523D01*
X183405714Y-87749523D01*
X183215238Y-87701904D01*
X183120000Y-87606666D01*
X183072380Y-87511428D01*
X183072380Y-87320952D01*
X183120000Y-87225714D01*
X183215238Y-87130476D01*
X183405714Y-87082857D01*
X183739047Y-87082857D01*
X183929523Y-87130476D01*
X184024761Y-87225714D01*
X184072380Y-87320952D01*
X184072380Y-87511428D01*
X184072380Y-86130476D02*
X184072380Y-86701904D01*
X184072380Y-86416190D02*
X183072380Y-86416190D01*
X183215238Y-86511428D01*
X183310476Y-86606666D01*
X183358095Y-86701904D01*
M02*
